<?xml version="1.0" encoding="utf-8"?>
<!-- Generator: Adobe Illustrator 20.1.0, SVG Export Plug-In . SVG Version: 6.00 Build 0)  -->
<svg version="1.1" id="Layer_1" xmlns="http://www.w3.org/2000/svg" xmlns:xlink="http://www.w3.org/1999/xlink" x="0px" y="0px"
	 viewBox="0 0 1136 736" style="enable-background:new 0 0 1136 736;" xml:space="preserve">
<style type="text/css">
	.st0{fill:#983111;}
	.st1{fill:#A2D3BB;}
	.st2{fill:#ED6B33;}
	.st3{fill:#F5E9DC;}
	.st4{fill:#613203;}
	.st5{fill:#383135;}
</style>
<g>
	<path class="st0" d="M1117,62.4c0-23.3-18.9-42.2-42.2-42.2H59.2C35.9,20.2,17,39.1,17,62.4v618.4c0,23.3,18.9,42.2,42.2,42.2
		h1015.6c23.3,0,42.2-18.9,42.2-42.2V62.4z"/>
	<polygon class="st1" points="91.4,203.5 91.4,617 132.1,660.8 1009.1,660.8 1045.7,623.1 1045.7,205.5 	"/>
	<path class="st2" d="M188.1,17c1,3.1,46.9,166.1,46.9,166.1h681.4l45.8-165.1L188.1,17z"/>
	<g>
		<path class="st0" d="M331.7,68c0,14.6-11.9,26.5-26.5,26.5c-14.6,0-26.5-11.9-26.5-26.5s11.9-26.5,26.5-26.5
			C319.9,41.6,331.7,53.4,331.7,68z"/>
		<path class="st0" d="M860.3,68c0,14.6-11.9,26.5-26.5,26.5c-14.6,0-26.5-11.9-26.5-26.5s11.9-26.5,26.5-26.5
			C848.5,41.6,860.3,53.4,860.3,68z"/>
		<path class="st0" d="M437.7,72.7c0-5.4-4.4-9.7-9.8-9.7h-18.2c-5.4,0-9.8,4.3-9.8,9.7v19.2c0,5.4,4.4,9.7,9.8,9.7h18.2
			c5.4,0,9.8-4.4,9.8-9.7V72.7z"/>
		<path class="st0" d="M748.9,72.7c0-5.4-4.4-9.7-9.7-9.7h-18.2c-5.4,0-9.7,4.3-9.7,9.7v19.2c0,5.4,4.4,9.7,9.7,9.7h18.2
			c5.4,0,9.7-4.4,9.7-9.7V72.7z"/>
	</g>
	<path class="st2" d="M325.6,489.7c0,0-85.6-6.1-85.6-94.7c0-88.6,100.8-80.5,110-80.5c9.1,0,461.4,0,461.4,0s84.5,1,84.5,82.5
		c0,81.5-65.2,94.7-89.6,94.7C781.9,491.7,325.6,489.7,325.6,489.7z"/>
	<rect x="445.8" y="386.8" class="st3" width="243.4" height="79.5"/>
	<path class="st4" d="M516.8,455.8c0,0,4.9-36.2-2.7-59.8h-57.9v60.2L516.8,455.8z"/>
	<path class="st4" d="M679.8,394.1v63.8H665c-1.4-11.9-4.5-45.1-0.2-63.8H679.8z"/>
	<g>
		<path class="st3" d="M873.3,403.1c0,36-29.2,65.2-65.2,65.2c-36,0-65.2-29.2-65.2-65.2c0-36,29.2-65.2,65.2-65.2
			C844.1,338,873.3,367.1,873.3,403.1z"/>
		<g>
			<polygon class="st5" points="827.1,454 817.2,457.7 821.6,469.4 831.5,465.7 			"/>
			<polygon class="st5" points="860.7,414.7 858.7,425.1 870.9,427.4 872.8,417 			"/>
			<polygon class="st5" points="843.3,362.6 850.9,369.9 859.6,361 852,353.7 			"/>
			<polygon class="st5" points="788.9,352.3 799,349.3 795.9,337.4 785.8,340.3 			"/>
			<polygon class="st5" points="754.1,393.5 756.3,383.3 744.3,380.3 742,390.5 			"/>
			<polygon class="st5" points="757.4,448.6 765.4,455.4 773.6,446.2 765.6,439.4 			"/>
		</g>
	</g>
	<g>
		<path class="st3" d="M397.9,403.1c0,36-29.2,65.2-65.2,65.2c-36,0-65.2-29.2-65.2-65.2c0-36,29.2-65.2,65.2-65.2
			C368.7,338,397.9,367.1,397.9,403.1z"/>
		<g>
			<polygon class="st5" points="351.7,454 341.8,457.7 346.1,469.4 356.1,465.7 			"/>
			<polygon class="st5" points="385.2,414.7 383.3,425.1 395.4,427.4 397.4,417 			"/>
			<polygon class="st5" points="367.9,362.6 375.5,369.9 384.2,361 376.6,353.7 			"/>
			<polygon class="st5" points="313.4,352.3 323.5,349.3 320.4,337.4 310.3,340.3 			"/>
			<polygon class="st5" points="278.6,393.5 280.9,383.3 268.9,380.3 266.6,390.5 			"/>
			<polygon class="st5" points="281.9,448.6 289.9,455.4 298.2,446.2 290.2,439.4 			"/>
		</g>
	</g>
</g>
</svg>
