<?xml version="1.0" encoding="utf-8"?>
<!-- Designed by Vexels.com - 2016 All Rights Reserved - https://vexels.com/terms-and-conditions/  -->

<svg version="1.1" id="Layer_1" xmlns="http://www.w3.org/2000/svg" xmlns:xlink="http://www.w3.org/1999/xlink" x="0px" y="0px"
	 width="1200px" height="1200px" viewBox="0 0 1200 1200" enable-background="new 0 0 1200 1200" xml:space="preserve">
<g>
	<path fill="#983111" d="M1150,292.393c0-23.314-18.898-42.213-42.197-42.213H92.213C68.898,250.18,50,269.079,50,292.393v618.359
		c0,23.307,18.898,42.213,42.213,42.213h1015.59c23.299,0,42.197-18.906,42.197-42.213V292.393z"/>
	<polygon fill="#A2D3BB" points="124.345,433.513 124.345,847.034 165.075,890.819 1042.047,890.819 1078.702,853.146 
		1078.702,435.55 	"/>
	<path fill="#ED6B33" d="M221.092,247.035c1.018,3.113,46.873,166.112,46.873,166.112H949.35l45.824-165.086L221.092,247.035z"/>
	<g>
		<path fill="#983111" d="M364.729,298.041c0,14.619-11.856,26.485-26.485,26.485c-14.644,0-26.509-11.865-26.509-26.485
			c0-14.62,11.865-26.469,26.509-26.469C352.873,271.572,364.729,283.421,364.729,298.041z"/>
		<path fill="#983111" d="M893.334,298.041c0,14.619-11.874,26.485-26.494,26.485c-14.603,0-26.46-11.865-26.46-26.485
			c0-14.62,11.857-26.469,26.46-26.469C881.46,271.572,893.334,283.421,893.334,298.041z"/>
		<path fill="#983111" d="M470.652,302.702c0-5.403-4.36-9.747-9.754-9.747h-18.181c-5.395,0-9.755,4.343-9.755,9.747v19.215
			c0,5.362,4.36,9.738,9.755,9.738h18.181c5.394,0,9.754-4.376,9.754-9.738V302.702z"/>
		<path fill="#983111" d="M781.861,302.702c0-5.403-4.352-9.747-9.723-9.747h-18.213c-5.362,0-9.73,4.343-9.73,9.747v19.215
			c0,5.362,4.368,9.738,9.73,9.738h18.213c5.371,0,9.723-4.376,9.723-9.738V302.702z"/>
	</g>
	<path fill="#ED6B33" d="M358.593,719.711c0,0-85.55-6.095-85.55-94.71c0-88.63,100.846-80.464,110.014-80.464
		c9.143,0,461.391,0,461.391,0s84.523,1.011,84.523,82.485c0,81.491-65.169,94.726-89.608,94.726
		C814.914,721.749,358.593,719.711,358.593,719.711z"/>
	<rect x="478.793" y="616.836" fill="#F5E9DC" width="243.432" height="79.463"/>
	<path fill="#613203" d="M549.821,685.762c0,0,4.938-36.166-2.681-59.791h-57.884v60.157L549.821,685.762z"/>
	<path fill="#613203" d="M712.829,624.129v63.776h-14.824c-1.361-11.93-4.506-45.146-0.212-63.776H712.829z"/>
	<g>
		<path fill="#F5E9DC" d="M906.307,633.134c0,36.012-29.174,65.186-65.169,65.186c-36.019,0-65.193-29.174-65.193-65.186
			c0-35.994,29.174-65.177,65.193-65.177C877.132,567.957,906.307,597.14,906.307,633.134z"/>
		<g>
			<polygon fill="#383135" points="860.117,684.042 850.2,687.742 854.584,699.396 864.51,695.687 			"/>
			<polygon fill="#383135" points="893.643,644.731 891.703,655.138 903.862,657.419 905.81,647.012 			"/>
			<polygon fill="#383135" points="876.342,592.559 883.938,599.935 892.616,591.027 885.037,583.653 			"/>
			<polygon fill="#383135" points="821.873,582.251 831.962,579.35 828.865,567.379 818.785,570.256 			"/>
			<polygon fill="#383135" points="787.052,623.527 789.326,613.267 777.33,610.276 775.023,620.528 			"/>
			<polygon fill="#383135" points="790.377,678.615 798.355,685.411 806.634,676.203 798.64,669.39 			"/>
		</g>
	</g>
	<g>
		<path fill="#F5E9DC" d="M430.868,633.134c0,36.012-29.174,65.186-65.193,65.186c-35.987,0-65.185-29.174-65.185-65.186
			c0-35.994,29.198-65.177,65.185-65.177C401.694,567.957,430.868,597.14,430.868,633.134z"/>
		<g>
			<polygon fill="#383135" points="384.67,684.042 374.769,687.742 379.137,699.396 389.046,695.687 			"/>
			<polygon fill="#383135" points="418.205,644.731 416.281,655.138 428.439,657.419 430.371,647.012 			"/>
			<polygon fill="#383135" points="400.895,592.559 408.499,599.935 417.153,591.027 409.566,583.653 			"/>
			<polygon fill="#383135" points="346.426,582.251 356.507,579.35 353.427,567.379 343.321,570.256 			"/>
			<polygon fill="#383135" points="311.613,623.527 313.895,613.267 301.859,610.276 299.577,620.528 			"/>
			<polygon fill="#383135" points="314.913,678.615 322.892,685.411 331.171,676.203 323.185,669.39 			"/>
		</g>
	</g>
</g>
</svg>
